<mxfile host="Electron" agent="Mozilla/5.0 (Windows NT 10.0; Win64; x64) AppleWebKit/537.36 (KHTML, like Gecko) draw.io/24.7.17 Chrome/128.0.6613.36 Electron/32.0.1 Safari/537.36" version="24.7.17">
  <diagram name="Page-1" id="KrR0dSTxkSxpPqosY5wD">
    <mxGraphModel dx="2638" dy="1469" grid="1" gridSize="10" guides="1" tooltips="1" connect="1" arrows="1" fold="1" page="0" pageScale="1" pageWidth="827" pageHeight="1169" background="none" math="0" shadow="1">
      <root>
        <mxCell id="0" />
        <mxCell id="1" parent="0" />
        <mxCell id="dL8D1LSxySZhku1xfe0i-30" value="" style="swimlane;startSize=0;" parent="1" vertex="1">
          <mxGeometry x="-570" y="-40" width="1050" height="1800" as="geometry" />
        </mxCell>
        <mxCell id="GIbPInfblWVgtL2tOyPH-95" value="Add To Page Registery" style="shape=cylinder3;whiteSpace=wrap;html=1;boundedLbl=1;backgroundOutline=1;size=15;fontSize=14;" parent="dL8D1LSxySZhku1xfe0i-30" vertex="1">
          <mxGeometry x="390" y="1240" width="140" height="80" as="geometry" />
        </mxCell>
        <mxCell id="GIbPInfblWVgtL2tOyPH-92" value="&lt;span style=&quot;font-size: 14px;&quot;&gt;Add Method to Dispatcher&lt;/span&gt;" style="shape=cylinder3;whiteSpace=wrap;html=1;boundedLbl=1;backgroundOutline=1;size=15;" parent="dL8D1LSxySZhku1xfe0i-30" vertex="1">
          <mxGeometry x="580" y="1450" width="110" height="80" as="geometry" />
        </mxCell>
        <mxCell id="GIbPInfblWVgtL2tOyPH-91" value="&lt;span style=&quot;font-size: 14px;&quot;&gt;Add Join and Page Id to the Revurse Page Register&lt;/span&gt;" style="shape=cylinder3;whiteSpace=wrap;html=1;boundedLbl=1;backgroundOutline=1;size=15;" parent="dL8D1LSxySZhku1xfe0i-30" vertex="1">
          <mxGeometry x="720" y="1450" width="210" height="80" as="geometry" />
        </mxCell>
        <mxCell id="dL8D1LSxySZhku1xfe0i-36" style="edgeStyle=orthogonalEdgeStyle;rounded=0;orthogonalLoop=1;jettySize=auto;html=1;entryX=0;entryY=0.5;entryDx=0;entryDy=0;entryPerimeter=0;" parent="dL8D1LSxySZhku1xfe0i-30" source="GIbPInfblWVgtL2tOyPH-92" target="GIbPInfblWVgtL2tOyPH-91" edge="1">
          <mxGeometry relative="1" as="geometry" />
        </mxCell>
        <mxCell id="GIbPInfblWVgtL2tOyPH-94" value="&lt;span style=&quot;font-size: 14px;&quot;&gt;Add To Enum Signal Registry&lt;/span&gt;" style="shape=cylinder3;whiteSpace=wrap;html=1;boundedLbl=1;backgroundOutline=1;size=15;" parent="dL8D1LSxySZhku1xfe0i-30" vertex="1">
          <mxGeometry x="385" y="980" width="150" height="80" as="geometry" />
        </mxCell>
        <mxCell id="GIbPInfblWVgtL2tOyPH-5" value="&lt;font style=&quot;font-size: 24px;&quot;&gt;LinkLynx&lt;/font&gt;" style="ellipse;whiteSpace=wrap;html=1;" parent="dL8D1LSxySZhku1xfe0i-30" vertex="1">
          <mxGeometry x="45" y="40" width="280" height="80" as="geometry" />
        </mxCell>
        <mxCell id="GIbPInfblWVgtL2tOyPH-82" value="" style="swimlane;startSize=0;fillColor=#60a917;fontColor=#ffffff;strokeColor=#2D7600;" parent="1" vertex="1">
          <mxGeometry x="-550" y="530" width="990" height="1110" as="geometry" />
        </mxCell>
        <mxCell id="GIbPInfblWVgtL2tOyPH-83" value="" style="swimlane;startSize=0;fillColor=#a20025;fontColor=#ffffff;strokeColor=#6F0000;fontSize=14;" parent="GIbPInfblWVgtL2tOyPH-82" vertex="1">
          <mxGeometry x="30" y="230" width="940" height="850" as="geometry" />
        </mxCell>
        <mxCell id="GIbPInfblWVgtL2tOyPH-84" value="" style="swimlane;startSize=0;fillColor=#1ba1e2;fontColor=#ffffff;strokeColor=#006EAF;" parent="GIbPInfblWVgtL2tOyPH-83" vertex="1">
          <mxGeometry x="220" y="620" width="700" height="210" as="geometry" />
        </mxCell>
        <mxCell id="GIbPInfblWVgtL2tOyPH-67" style="edgeStyle=orthogonalEdgeStyle;rounded=0;orthogonalLoop=1;jettySize=auto;html=1;entryX=0.5;entryY=0;entryDx=0;entryDy=0;" parent="GIbPInfblWVgtL2tOyPH-83" source="GIbPInfblWVgtL2tOyPH-64" target="GIbPInfblWVgtL2tOyPH-66" edge="1">
          <mxGeometry relative="1" as="geometry" />
        </mxCell>
        <mxCell id="GIbPInfblWVgtL2tOyPH-64" value="For Each Method In the class" style="rounded=0;whiteSpace=wrap;html=1;" parent="GIbPInfblWVgtL2tOyPH-83" vertex="1">
          <mxGeometry x="330" y="550" width="120" height="60" as="geometry" />
        </mxCell>
        <mxCell id="GIbPInfblWVgtL2tOyPH-77" style="edgeStyle=orthogonalEdgeStyle;rounded=0;orthogonalLoop=1;jettySize=auto;html=1;entryX=0.5;entryY=0;entryDx=0;entryDy=0;" parent="GIbPInfblWVgtL2tOyPH-83" source="GIbPInfblWVgtL2tOyPH-66" target="GIbPInfblWVgtL2tOyPH-76" edge="1">
          <mxGeometry relative="1" as="geometry" />
        </mxCell>
        <mxCell id="GIbPInfblWVgtL2tOyPH-66" value="Does Method Have an Join Attribute?" style="rhombus;whiteSpace=wrap;html=1;fontSize=14;spacingTop=14;" parent="GIbPInfblWVgtL2tOyPH-83" vertex="1">
          <mxGeometry x="280" y="640" width="220" height="100" as="geometry" />
        </mxCell>
        <mxCell id="GIbPInfblWVgtL2tOyPH-68" value="No" style="text;strokeColor=none;fillColor=none;align=center;verticalAlign=middle;spacingLeft=4;spacingRight=4;overflow=hidden;points=[[0,0.5],[1,0.5]];portConstraint=eastwest;rotatable=0;whiteSpace=wrap;html=1;fontSize=14;" parent="GIbPInfblWVgtL2tOyPH-83" vertex="1">
          <mxGeometry x="380" y="730" width="50" height="30" as="geometry" />
        </mxCell>
        <mxCell id="GIbPInfblWVgtL2tOyPH-69" value="Yes" style="text;strokeColor=none;fillColor=none;align=center;verticalAlign=middle;spacingLeft=4;spacingRight=4;overflow=hidden;points=[[0,0.5],[1,0.5]];portConstraint=eastwest;rotatable=0;whiteSpace=wrap;html=1;fontSize=14;" parent="GIbPInfblWVgtL2tOyPH-83" vertex="1">
          <mxGeometry x="470" y="660" width="50" height="30" as="geometry" />
        </mxCell>
        <mxCell id="GIbPInfblWVgtL2tOyPH-72" value="" style="endArrow=classic;html=1;rounded=0;exitX=1;exitY=0.5;exitDx=0;exitDy=0;entryX=0;entryY=0.5;entryDx=0;entryDy=0;" parent="GIbPInfblWVgtL2tOyPH-83" source="GIbPInfblWVgtL2tOyPH-66" edge="1">
          <mxGeometry width="50" height="50" relative="1" as="geometry">
            <mxPoint x="460" y="610" as="sourcePoint" />
            <mxPoint x="530" y="690" as="targetPoint" />
          </mxGeometry>
        </mxCell>
        <mxCell id="GIbPInfblWVgtL2tOyPH-76" value="Continue" style="rounded=0;whiteSpace=wrap;html=1;fontSize=14;" parent="GIbPInfblWVgtL2tOyPH-83" vertex="1">
          <mxGeometry x="330" y="790" width="120" height="25" as="geometry" />
        </mxCell>
        <mxCell id="GIbPInfblWVgtL2tOyPH-4" value="&lt;font style=&quot;font-size: 14px;&quot;&gt;AutoRegisterScanner.Run()&lt;/font&gt;" style="rounded=0;whiteSpace=wrap;html=1;fontSize=14;" parent="1" vertex="1">
          <mxGeometry x="-500" y="260" width="230" height="40" as="geometry" />
        </mxCell>
        <mxCell id="GIbPInfblWVgtL2tOyPH-102" style="edgeStyle=orthogonalEdgeStyle;rounded=0;orthogonalLoop=1;jettySize=auto;html=1;entryX=0.5;entryY=0;entryDx=0;entryDy=0;" parent="1" source="GIbPInfblWVgtL2tOyPH-5" target="GIbPInfblWVgtL2tOyPH-7" edge="1">
          <mxGeometry relative="1" as="geometry" />
        </mxCell>
        <mxCell id="GIbPInfblWVgtL2tOyPH-7" value="&lt;font style=&quot;font-size: 16px;&quot;&gt;Initialize()&lt;/font&gt;" style="rounded=0;whiteSpace=wrap;html=1;" parent="1" vertex="1">
          <mxGeometry x="-445" y="150" width="120" height="50" as="geometry" />
        </mxCell>
        <mxCell id="GIbPInfblWVgtL2tOyPH-8" value="" style="endArrow=classic;html=1;rounded=0;exitX=0.5;exitY=1;exitDx=0;exitDy=0;entryX=0.5;entryY=0;entryDx=0;entryDy=0;" parent="1" source="GIbPInfblWVgtL2tOyPH-7" target="GIbPInfblWVgtL2tOyPH-4" edge="1">
          <mxGeometry width="50" height="50" relative="1" as="geometry">
            <mxPoint x="-290" y="230" as="sourcePoint" />
            <mxPoint x="-240" y="180" as="targetPoint" />
          </mxGeometry>
        </mxCell>
        <mxCell id="GIbPInfblWVgtL2tOyPH-13" value="Is Assembly Whitelisted?" style="rhombus;whiteSpace=wrap;html=1;fontSize=14;" parent="1" vertex="1">
          <mxGeometry x="-510" y="560" width="250" height="80" as="geometry" />
        </mxCell>
        <mxCell id="GIbPInfblWVgtL2tOyPH-80" style="edgeStyle=orthogonalEdgeStyle;rounded=0;orthogonalLoop=1;jettySize=auto;html=1;entryX=0.5;entryY=0;entryDx=0;entryDy=0;" parent="1" source="GIbPInfblWVgtL2tOyPH-14" target="GIbPInfblWVgtL2tOyPH-79" edge="1">
          <mxGeometry relative="1" as="geometry" />
        </mxCell>
        <mxCell id="GIbPInfblWVgtL2tOyPH-14" value="Scann All Assemblies" style="rounded=0;whiteSpace=wrap;html=1;fontSize=14;" parent="1" vertex="1">
          <mxGeometry x="-452" y="360" width="134" height="40" as="geometry" />
        </mxCell>
        <mxCell id="GIbPInfblWVgtL2tOyPH-15" value="" style="endArrow=classic;html=1;rounded=0;exitX=0.5;exitY=1;exitDx=0;exitDy=0;entryX=0.5;entryY=0;entryDx=0;entryDy=0;" parent="1" source="GIbPInfblWVgtL2tOyPH-4" target="GIbPInfblWVgtL2tOyPH-14" edge="1">
          <mxGeometry width="50" height="50" relative="1" as="geometry">
            <mxPoint x="-310" y="380" as="sourcePoint" />
            <mxPoint x="-260" y="330" as="targetPoint" />
          </mxGeometry>
        </mxCell>
        <mxCell id="GIbPInfblWVgtL2tOyPH-20" value="Yes" style="text;strokeColor=none;fillColor=none;align=center;verticalAlign=middle;spacingLeft=4;spacingRight=4;overflow=hidden;points=[[0,0.5],[1,0.5]];portConstraint=eastwest;rotatable=0;whiteSpace=wrap;html=1;fontSize=14;" parent="1" vertex="1">
          <mxGeometry x="-390" y="634" width="50" height="30" as="geometry" />
        </mxCell>
        <mxCell id="GIbPInfblWVgtL2tOyPH-21" value="No" style="text;strokeColor=none;fillColor=none;align=center;verticalAlign=middle;spacingLeft=4;spacingRight=4;overflow=hidden;points=[[0,0.5],[1,0.5]];portConstraint=eastwest;rotatable=0;whiteSpace=wrap;html=1;fontSize=14;" parent="1" vertex="1">
          <mxGeometry x="-290" y="570" width="50" height="30" as="geometry" />
        </mxCell>
        <mxCell id="GIbPInfblWVgtL2tOyPH-23" value="" style="endArrow=classic;html=1;rounded=0;exitX=1;exitY=0.5;exitDx=0;exitDy=0;" parent="1" source="GIbPInfblWVgtL2tOyPH-13" edge="1">
          <mxGeometry width="50" height="50" relative="1" as="geometry">
            <mxPoint x="-270" y="640" as="sourcePoint" />
            <mxPoint x="-210" y="600" as="targetPoint" />
          </mxGeometry>
        </mxCell>
        <mxCell id="GIbPInfblWVgtL2tOyPH-24" value="Skip Scanning this Assembly" style="rounded=0;whiteSpace=wrap;html=1;fontSize=14;" parent="1" vertex="1">
          <mxGeometry x="-210" y="577.5" width="140" height="45" as="geometry" />
        </mxCell>
        <mxCell id="GIbPInfblWVgtL2tOyPH-25" value="" style="endArrow=classic;html=1;rounded=0;exitX=0.5;exitY=1;exitDx=0;exitDy=0;entryX=0.5;entryY=0;entryDx=0;entryDy=0;" parent="1" source="GIbPInfblWVgtL2tOyPH-13" target="GIbPInfblWVgtL2tOyPH-29" edge="1">
          <mxGeometry width="50" height="50" relative="1" as="geometry">
            <mxPoint x="-310" y="580" as="sourcePoint" />
            <mxPoint x="-385" y="680" as="targetPoint" />
          </mxGeometry>
        </mxCell>
        <mxCell id="GIbPInfblWVgtL2tOyPH-29" value="&lt;font style=&quot;font-size: 14px;&quot;&gt;For Each Type in the Assmbly&lt;/font&gt;" style="rounded=0;whiteSpace=wrap;html=1;" parent="1" vertex="1">
          <mxGeometry x="-445" y="690" width="120" height="60" as="geometry" />
        </mxCell>
        <mxCell id="GIbPInfblWVgtL2tOyPH-39" style="edgeStyle=orthogonalEdgeStyle;rounded=0;orthogonalLoop=1;jettySize=auto;html=1;exitX=1;exitY=0.5;exitDx=0;exitDy=0;entryX=0;entryY=0.5;entryDx=0;entryDy=0;" parent="1" source="GIbPInfblWVgtL2tOyPH-30" edge="1">
          <mxGeometry relative="1" as="geometry">
            <mxPoint x="-210" y="840" as="targetPoint" />
          </mxGeometry>
        </mxCell>
        <mxCell id="GIbPInfblWVgtL2tOyPH-57" style="edgeStyle=orthogonalEdgeStyle;rounded=0;orthogonalLoop=1;jettySize=auto;html=1;entryX=0.5;entryY=0;entryDx=0;entryDy=0;" parent="1" source="GIbPInfblWVgtL2tOyPH-30" target="GIbPInfblWVgtL2tOyPH-49" edge="1">
          <mxGeometry relative="1" as="geometry" />
        </mxCell>
        <mxCell id="GIbPInfblWVgtL2tOyPH-30" value="Is the type is an Enum?" style="rhombus;whiteSpace=wrap;html=1;fontSize=14;" parent="1" vertex="1">
          <mxGeometry x="-490" y="800" width="210" height="80" as="geometry" />
        </mxCell>
        <mxCell id="GIbPInfblWVgtL2tOyPH-31" value="" style="endArrow=classic;html=1;rounded=0;exitX=0.5;exitY=1;exitDx=0;exitDy=0;entryX=0.5;entryY=0;entryDx=0;entryDy=0;" parent="1" source="GIbPInfblWVgtL2tOyPH-29" target="GIbPInfblWVgtL2tOyPH-30" edge="1">
          <mxGeometry width="50" height="50" relative="1" as="geometry">
            <mxPoint x="-310" y="680" as="sourcePoint" />
            <mxPoint x="-260" y="630" as="targetPoint" />
          </mxGeometry>
        </mxCell>
        <mxCell id="GIbPInfblWVgtL2tOyPH-32" value="No" style="text;strokeColor=none;fillColor=none;align=center;verticalAlign=middle;spacingLeft=4;spacingRight=4;overflow=hidden;points=[[0,0.5],[1,0.5]];portConstraint=eastwest;rotatable=0;whiteSpace=wrap;html=1;fontSize=14;" parent="1" vertex="1">
          <mxGeometry x="-390" y="1150" width="50" height="30" as="geometry" />
        </mxCell>
        <mxCell id="GIbPInfblWVgtL2tOyPH-33" value="Yes" style="text;strokeColor=none;fillColor=none;align=center;verticalAlign=middle;spacingLeft=4;spacingRight=4;overflow=hidden;points=[[0,0.5],[1,0.5]];portConstraint=eastwest;rotatable=0;whiteSpace=wrap;html=1;fontSize=14;" parent="1" vertex="1">
          <mxGeometry x="-300" y="810" width="50" height="30" as="geometry" />
        </mxCell>
        <mxCell id="GIbPInfblWVgtL2tOyPH-46" style="edgeStyle=orthogonalEdgeStyle;rounded=0;orthogonalLoop=1;jettySize=auto;html=1;exitX=1;exitY=0.5;exitDx=0;exitDy=0;entryX=0;entryY=0.5;entryDx=0;entryDy=0;" parent="1" source="GIbPInfblWVgtL2tOyPH-40" target="GIbPInfblWVgtL2tOyPH-45" edge="1">
          <mxGeometry relative="1" as="geometry" />
        </mxCell>
        <mxCell id="GIbPInfblWVgtL2tOyPH-40" value="Does Enum Have a Singal Type Atrabute?" style="rhombus;whiteSpace=wrap;html=1;fontSize=14;spacingTop=17;spacingLeft=0;spacingRight=0;spacing=2;" parent="1" vertex="1">
          <mxGeometry x="-210" y="780" width="200" height="120" as="geometry" />
        </mxCell>
        <mxCell id="GIbPInfblWVgtL2tOyPH-41" value="Yes" style="text;strokeColor=none;fillColor=none;align=center;verticalAlign=middle;spacingLeft=4;spacingRight=4;overflow=hidden;points=[[0,0.5],[1,0.5]];portConstraint=eastwest;rotatable=0;whiteSpace=wrap;html=1;fontSize=14;" parent="1" vertex="1">
          <mxGeometry x="-116" y="890" width="50" height="30" as="geometry" />
        </mxCell>
        <mxCell id="GIbPInfblWVgtL2tOyPH-42" value="No" style="text;strokeColor=none;fillColor=none;align=center;verticalAlign=middle;spacingLeft=4;spacingRight=4;overflow=hidden;points=[[0,0.5],[1,0.5]];portConstraint=eastwest;rotatable=0;whiteSpace=wrap;html=1;fontSize=14;" parent="1" vertex="1">
          <mxGeometry x="-30" y="810" width="50" height="30" as="geometry" />
        </mxCell>
        <mxCell id="GIbPInfblWVgtL2tOyPH-45" value="Continue" style="rounded=0;whiteSpace=wrap;html=1;fontSize=14;" parent="1" vertex="1">
          <mxGeometry x="20" y="827.5" width="100" height="25" as="geometry" />
        </mxCell>
        <mxCell id="GIbPInfblWVgtL2tOyPH-58" style="edgeStyle=orthogonalEdgeStyle;rounded=0;orthogonalLoop=1;jettySize=auto;html=1;entryX=0;entryY=0.5;entryDx=0;entryDy=0;" parent="1" source="GIbPInfblWVgtL2tOyPH-49" target="GIbPInfblWVgtL2tOyPH-52" edge="1">
          <mxGeometry relative="1" as="geometry" />
        </mxCell>
        <mxCell id="GIbPInfblWVgtL2tOyPH-63" style="edgeStyle=orthogonalEdgeStyle;rounded=0;orthogonalLoop=1;jettySize=auto;html=1;entryX=0.5;entryY=0;entryDx=0;entryDy=0;" parent="1" source="GIbPInfblWVgtL2tOyPH-49" target="GIbPInfblWVgtL2tOyPH-62" edge="1">
          <mxGeometry relative="1" as="geometry" />
        </mxCell>
        <mxCell id="GIbPInfblWVgtL2tOyPH-49" value="Is The Type a Class?&amp;nbsp;" style="rhombus;whiteSpace=wrap;html=1;fontSize=14;" parent="1" vertex="1">
          <mxGeometry x="-477.5" y="1080" width="185" height="80" as="geometry" />
        </mxCell>
        <mxCell id="GIbPInfblWVgtL2tOyPH-50" value="No" style="text;strokeColor=none;fillColor=none;align=center;verticalAlign=middle;spacingLeft=4;spacingRight=4;overflow=hidden;points=[[0,0.5],[1,0.5]];portConstraint=eastwest;rotatable=0;whiteSpace=wrap;html=1;fontSize=14;" parent="1" vertex="1">
          <mxGeometry x="-390" y="880" width="50" height="30" as="geometry" />
        </mxCell>
        <mxCell id="GIbPInfblWVgtL2tOyPH-51" value="Yes" style="text;strokeColor=none;fillColor=none;align=center;verticalAlign=middle;spacingLeft=4;spacingRight=4;overflow=hidden;points=[[0,0.5],[1,0.5]];portConstraint=eastwest;rotatable=0;whiteSpace=wrap;html=1;fontSize=14;" parent="1" vertex="1">
          <mxGeometry x="-310" y="1090" width="50" height="30" as="geometry" />
        </mxCell>
        <mxCell id="GIbPInfblWVgtL2tOyPH-56" style="edgeStyle=orthogonalEdgeStyle;rounded=0;orthogonalLoop=1;jettySize=auto;html=1;entryX=0;entryY=0.5;entryDx=0;entryDy=0;" parent="1" source="GIbPInfblWVgtL2tOyPH-52" target="GIbPInfblWVgtL2tOyPH-55" edge="1">
          <mxGeometry relative="1" as="geometry" />
        </mxCell>
        <mxCell id="GIbPInfblWVgtL2tOyPH-52" value="Does Class Have a Page Atrabute?" style="rhombus;whiteSpace=wrap;html=1;fontSize=14;spacingTop=20;spacingLeft=0;spacingRight=0;spacing=2;" parent="1" vertex="1">
          <mxGeometry x="-210" y="1060" width="200" height="120" as="geometry" />
        </mxCell>
        <mxCell id="GIbPInfblWVgtL2tOyPH-53" value="Yes" style="text;strokeColor=none;fillColor=none;align=center;verticalAlign=middle;spacingLeft=4;spacingRight=4;overflow=hidden;points=[[0,0.5],[1,0.5]];portConstraint=eastwest;rotatable=0;whiteSpace=wrap;html=1;fontSize=14;" parent="1" vertex="1">
          <mxGeometry x="-110" y="1170" width="50" height="30" as="geometry" />
        </mxCell>
        <mxCell id="GIbPInfblWVgtL2tOyPH-54" value="No" style="text;strokeColor=none;fillColor=none;align=center;verticalAlign=middle;spacingLeft=4;spacingRight=4;overflow=hidden;points=[[0,0.5],[1,0.5]];portConstraint=eastwest;rotatable=0;whiteSpace=wrap;html=1;fontSize=14;" parent="1" vertex="1">
          <mxGeometry x="-30" y="1090" width="50" height="30" as="geometry" />
        </mxCell>
        <mxCell id="GIbPInfblWVgtL2tOyPH-55" value="Continue" style="rounded=0;whiteSpace=wrap;html=1;fontSize=14;" parent="1" vertex="1">
          <mxGeometry x="20" y="1107.5" width="100" height="25" as="geometry" />
        </mxCell>
        <mxCell id="GIbPInfblWVgtL2tOyPH-62" value="Continue" style="rounded=0;whiteSpace=wrap;html=1;fontSize=14;" parent="1" vertex="1">
          <mxGeometry x="-435" y="1210" width="100" height="25" as="geometry" />
        </mxCell>
        <mxCell id="GIbPInfblWVgtL2tOyPH-90" style="edgeStyle=orthogonalEdgeStyle;rounded=0;orthogonalLoop=1;jettySize=auto;html=1;entryX=0.5;entryY=0;entryDx=0;entryDy=0;" parent="1" source="GIbPInfblWVgtL2tOyPH-79" target="GIbPInfblWVgtL2tOyPH-13" edge="1">
          <mxGeometry relative="1" as="geometry" />
        </mxCell>
        <mxCell id="GIbPInfblWVgtL2tOyPH-79" value="For Ea&lt;span style=&quot;background-color: initial;&quot;&gt;ch Assembly&lt;/span&gt;" style="rounded=0;whiteSpace=wrap;html=1;fontSize=14;" parent="1" vertex="1">
          <mxGeometry x="-456.5" y="448" width="143" height="48" as="geometry" />
        </mxCell>
        <mxCell id="GIbPInfblWVgtL2tOyPH-86" value="End" style="ellipse;whiteSpace=wrap;html=1;fontSize=14;" parent="1" vertex="1">
          <mxGeometry x="-445" y="1680" width="120" height="50" as="geometry" />
        </mxCell>
        <mxCell id="GIbPInfblWVgtL2tOyPH-87" value="" style="endArrow=classic;html=1;rounded=0;entryX=0.5;entryY=0;entryDx=0;entryDy=0;fillColor=#60a917;strokeColor=#2D7600;" parent="1" target="GIbPInfblWVgtL2tOyPH-86" edge="1">
          <mxGeometry width="50" height="50" relative="1" as="geometry">
            <mxPoint x="-385" y="1640" as="sourcePoint" />
            <mxPoint x="-385" y="1700" as="targetPoint" />
          </mxGeometry>
        </mxCell>
        <mxCell id="oS7MzfRwADnnLeCyvdUV-10" style="edgeStyle=orthogonalEdgeStyle;rounded=0;orthogonalLoop=1;jettySize=auto;html=1;entryX=0.5;entryY=0;entryDx=0;entryDy=0;" parent="1" source="GIbPInfblWVgtL2tOyPH-103" target="oS7MzfRwADnnLeCyvdUV-8" edge="1">
          <mxGeometry relative="1" as="geometry" />
        </mxCell>
        <mxCell id="GIbPInfblWVgtL2tOyPH-103" value="RegisterPanel(BasicTriList panel)" style="rounded=0;whiteSpace=wrap;html=1;fontSize=14;" parent="1" vertex="1">
          <mxGeometry x="1455" y="130" width="250" height="60" as="geometry" />
        </mxCell>
        <mxCell id="xaHEJ4oOJj-pfTSbVaXB-36" style="edgeStyle=orthogonalEdgeStyle;rounded=0;orthogonalLoop=1;jettySize=auto;html=1;entryX=0.5;entryY=0;entryDx=0;entryDy=0;" parent="1" source="GIbPInfblWVgtL2tOyPH-104" edge="1">
          <mxGeometry relative="1" as="geometry">
            <mxPoint x="2105" y="240" as="targetPoint" />
          </mxGeometry>
        </mxCell>
        <mxCell id="GIbPInfblWVgtL2tOyPH-104" value="SetPanelToDefaultState(BasicTriList panel)" style="rounded=0;whiteSpace=wrap;html=1;fontSize=14;" parent="1" vertex="1">
          <mxGeometry x="1950" y="130" width="310" height="60" as="geometry" />
        </mxCell>
        <mxCell id="dL8D1LSxySZhku1xfe0i-31" value="System Initalization" style="text;strokeColor=none;fillColor=none;align=left;verticalAlign=middle;spacingLeft=4;spacingRight=4;overflow=hidden;points=[[0,0.5],[1,0.5]];portConstraint=eastwest;rotatable=0;whiteSpace=wrap;html=1;fontSize=30;" parent="1" vertex="1">
          <mxGeometry x="-570" y="-120" width="270" height="80" as="geometry" />
        </mxCell>
        <mxCell id="dL8D1LSxySZhku1xfe0i-32" value="System Cleanup" style="text;strokeColor=none;fillColor=none;align=left;verticalAlign=middle;spacingLeft=4;spacingRight=4;overflow=hidden;points=[[0,0.5],[1,0.5]];portConstraint=eastwest;rotatable=0;whiteSpace=wrap;html=1;fontSize=30;" parent="1" vertex="1">
          <mxGeometry x="560" y="-120" width="270" height="80" as="geometry" />
        </mxCell>
        <mxCell id="dL8D1LSxySZhku1xfe0i-33" style="edgeStyle=orthogonalEdgeStyle;rounded=0;orthogonalLoop=1;jettySize=auto;html=1;entryX=0.5;entryY=0;entryDx=0;entryDy=0;entryPerimeter=0;" parent="1" source="GIbPInfblWVgtL2tOyPH-52" target="GIbPInfblWVgtL2tOyPH-95" edge="1">
          <mxGeometry relative="1" as="geometry" />
        </mxCell>
        <mxCell id="dL8D1LSxySZhku1xfe0i-35" style="edgeStyle=orthogonalEdgeStyle;rounded=0;orthogonalLoop=1;jettySize=auto;html=1;entryX=0.669;entryY=0.012;entryDx=0;entryDy=0;entryPerimeter=0;" parent="1" source="GIbPInfblWVgtL2tOyPH-95" target="GIbPInfblWVgtL2tOyPH-64" edge="1">
          <mxGeometry relative="1" as="geometry" />
        </mxCell>
        <mxCell id="GIbPInfblWVgtL2tOyPH-85" value="" style="endArrow=classic;html=1;rounded=0;entryX=1;entryY=0.5;entryDx=0;entryDy=0;exitX=0.5;exitY=1;exitDx=0;exitDy=0;exitPerimeter=0;" parent="1" source="GIbPInfblWVgtL2tOyPH-91" target="GIbPInfblWVgtL2tOyPH-76" edge="1">
          <mxGeometry width="50" height="50" relative="1" as="geometry">
            <mxPoint x="270" y="1520" as="sourcePoint" />
            <mxPoint x="120" y="1260" as="targetPoint" />
            <Array as="points">
              <mxPoint x="255" y="1560" />
            </Array>
          </mxGeometry>
        </mxCell>
        <mxCell id="dL8D1LSxySZhku1xfe0i-37" style="edgeStyle=orthogonalEdgeStyle;rounded=0;orthogonalLoop=1;jettySize=auto;html=1;" parent="1" source="GIbPInfblWVgtL2tOyPH-40" edge="1">
          <mxGeometry relative="1" as="geometry">
            <mxPoint x="-110" y="940" as="targetPoint" />
          </mxGeometry>
        </mxCell>
        <mxCell id="xaHEJ4oOJj-pfTSbVaXB-60" style="edgeStyle=orthogonalEdgeStyle;rounded=0;orthogonalLoop=1;jettySize=auto;html=1;entryX=0.5;entryY=0;entryDx=0;entryDy=0;fontSize=14;" parent="1" source="GIbPInfblWVgtL2tOyPH-106" target="xaHEJ4oOJj-pfTSbVaXB-58" edge="1">
          <mxGeometry relative="1" as="geometry" />
        </mxCell>
        <mxCell id="GIbPInfblWVgtL2tOyPH-106" value="HandleSimpleSignal(BasicTriList panel, SigEventArgs args)" style="rounded=0;whiteSpace=wrap;html=1;fontSize=14;" parent="1" vertex="1">
          <mxGeometry x="2650" y="161" width="400" height="60" as="geometry" />
        </mxCell>
        <mxCell id="oS7MzfRwADnnLeCyvdUV-2" style="edgeStyle=orthogonalEdgeStyle;rounded=0;orthogonalLoop=1;jettySize=auto;html=1;entryX=0.5;entryY=0;entryDx=0;entryDy=0;" parent="1" source="oS7MzfRwADnnLeCyvdUV-1" target="GIbPInfblWVgtL2tOyPH-103" edge="1">
          <mxGeometry relative="1" as="geometry" />
        </mxCell>
        <mxCell id="oS7MzfRwADnnLeCyvdUV-8" value="logicGroup = New PanelLogicGroup(panel)" style="rounded=0;whiteSpace=wrap;html=1;fontSize=14;" parent="1" vertex="1">
          <mxGeometry x="1417.5" y="260" width="325" height="60" as="geometry" />
        </mxCell>
        <mxCell id="oS7MzfRwADnnLeCyvdUV-17" style="edgeStyle=orthogonalEdgeStyle;rounded=0;orthogonalLoop=1;jettySize=auto;html=1;entryX=0.5;entryY=0;entryDx=0;entryDy=0;" parent="1" source="oS7MzfRwADnnLeCyvdUV-11" target="oS7MzfRwADnnLeCyvdUV-16" edge="1">
          <mxGeometry relative="1" as="geometry" />
        </mxCell>
        <mxCell id="oS7MzfRwADnnLeCyvdUV-11" value="Logic Group Pool.Add(panel.ID, logicGroup)" style="shape=cylinder3;whiteSpace=wrap;html=1;boundedLbl=1;backgroundOutline=1;size=15;fontSize=14;" parent="1" vertex="1">
          <mxGeometry x="1432.5" y="400" width="295" height="92" as="geometry" />
        </mxCell>
        <mxCell id="oS7MzfRwADnnLeCyvdUV-12" style="edgeStyle=orthogonalEdgeStyle;rounded=0;orthogonalLoop=1;jettySize=auto;html=1;entryX=0.5;entryY=0;entryDx=0;entryDy=0;entryPerimeter=0;" parent="1" source="oS7MzfRwADnnLeCyvdUV-8" target="oS7MzfRwADnnLeCyvdUV-11" edge="1">
          <mxGeometry relative="1" as="geometry" />
        </mxCell>
        <mxCell id="xaHEJ4oOJj-pfTSbVaXB-31" style="edgeStyle=orthogonalEdgeStyle;rounded=0;orthogonalLoop=1;jettySize=auto;html=1;entryX=0.5;entryY=0;entryDx=0;entryDy=0;" parent="1" source="oS7MzfRwADnnLeCyvdUV-16" edge="1">
          <mxGeometry relative="1" as="geometry">
            <mxPoint x="1580" y="660" as="targetPoint" />
          </mxGeometry>
        </mxCell>
        <mxCell id="oS7MzfRwADnnLeCyvdUV-16" value="logicGroup.InitializePageLogic()" style="rounded=0;whiteSpace=wrap;html=1;fontSize=14;" parent="1" vertex="1">
          <mxGeometry x="1467.5" y="550" width="225" height="40" as="geometry" />
        </mxCell>
        <mxCell id="xaHEJ4oOJj-pfTSbVaXB-1" value="" style="swimlane;startSize=0;" parent="1" vertex="1">
          <mxGeometry x="570" y="-30" width="710" height="1240" as="geometry" />
        </mxCell>
        <mxCell id="xaHEJ4oOJj-pfTSbVaXB-2" value="Cleanup()" style="rounded=0;whiteSpace=wrap;html=1;fontSize=14;" parent="xaHEJ4oOJj-pfTSbVaXB-1" vertex="1">
          <mxGeometry x="300" y="155" width="100" height="60" as="geometry" />
        </mxCell>
        <mxCell id="xaHEJ4oOJj-pfTSbVaXB-3" value="&lt;font style=&quot;font-size: 24px;&quot;&gt;LinkLynx&lt;/font&gt;" style="ellipse;whiteSpace=wrap;html=1;fontSize=24;" parent="xaHEJ4oOJj-pfTSbVaXB-1" vertex="1">
          <mxGeometry x="210" y="30" width="280" height="80" as="geometry" />
        </mxCell>
        <mxCell id="xaHEJ4oOJj-pfTSbVaXB-4" value="Panel Pool.Clear()" style="shape=cylinder3;whiteSpace=wrap;html=1;boundedLbl=1;backgroundOutline=1;size=15;fontSize=14;" parent="xaHEJ4oOJj-pfTSbVaXB-1" vertex="1">
          <mxGeometry x="250" y="265" width="200" height="70" as="geometry" />
        </mxCell>
        <mxCell id="xaHEJ4oOJj-pfTSbVaXB-5" value="Logic Group Pool.Clear()" style="shape=cylinder3;whiteSpace=wrap;html=1;boundedLbl=1;backgroundOutline=1;size=15;fontSize=14;" parent="xaHEJ4oOJj-pfTSbVaXB-1" vertex="1">
          <mxGeometry x="250" y="385" width="200" height="70" as="geometry" />
        </mxCell>
        <mxCell id="xaHEJ4oOJj-pfTSbVaXB-6" value="Page Registry.Clear()" style="shape=cylinder3;whiteSpace=wrap;html=1;boundedLbl=1;backgroundOutline=1;size=15;fontSize=14;" parent="xaHEJ4oOJj-pfTSbVaXB-1" vertex="1">
          <mxGeometry x="250" y="505" width="200" height="70" as="geometry" />
        </mxCell>
        <mxCell id="xaHEJ4oOJj-pfTSbVaXB-7" style="edgeStyle=orthogonalEdgeStyle;rounded=0;orthogonalLoop=1;jettySize=auto;html=1;entryX=0.5;entryY=0;entryDx=0;entryDy=0;" parent="xaHEJ4oOJj-pfTSbVaXB-1" source="xaHEJ4oOJj-pfTSbVaXB-8" target="xaHEJ4oOJj-pfTSbVaXB-9" edge="1">
          <mxGeometry relative="1" as="geometry" />
        </mxCell>
        <mxCell id="xaHEJ4oOJj-pfTSbVaXB-8" value="Enum Signal Type Registry.Clear()" style="shape=cylinder3;whiteSpace=wrap;html=1;boundedLbl=1;backgroundOutline=1;size=15;fontSize=14;" parent="xaHEJ4oOJj-pfTSbVaXB-1" vertex="1">
          <mxGeometry x="225" y="740" width="250" height="70" as="geometry" />
        </mxCell>
        <mxCell id="xaHEJ4oOJj-pfTSbVaXB-9" value="DispatchHelper.Clear()" style="rounded=0;whiteSpace=wrap;html=1;fontSize=14;" parent="xaHEJ4oOJj-pfTSbVaXB-1" vertex="1">
          <mxGeometry x="210" y="870" width="280" height="60" as="geometry" />
        </mxCell>
        <mxCell id="xaHEJ4oOJj-pfTSbVaXB-10" value="Digital Dispatcher.Clear()" style="shape=cylinder3;whiteSpace=wrap;html=1;boundedLbl=1;backgroundOutline=1;size=15;fontSize=14;" parent="xaHEJ4oOJj-pfTSbVaXB-1" vertex="1">
          <mxGeometry x="40" y="1027.5" width="190" height="70" as="geometry" />
        </mxCell>
        <mxCell id="xaHEJ4oOJj-pfTSbVaXB-11" value="Analog&amp;nbsp;&lt;span style=&quot;background-color: initial;&quot;&gt;Dispatcher&lt;/span&gt;.Clear()" style="shape=cylinder3;whiteSpace=wrap;html=1;boundedLbl=1;backgroundOutline=1;size=15;fontSize=14;" parent="xaHEJ4oOJj-pfTSbVaXB-1" vertex="1">
          <mxGeometry x="250" y="1027.5" width="200" height="70" as="geometry" />
        </mxCell>
        <mxCell id="xaHEJ4oOJj-pfTSbVaXB-12" value="Serial&amp;nbsp;&lt;span style=&quot;background-color: initial;&quot;&gt;Dispatcher&lt;/span&gt;.Clear()" style="shape=cylinder3;whiteSpace=wrap;html=1;boundedLbl=1;backgroundOutline=1;size=15;fontSize=14;" parent="xaHEJ4oOJj-pfTSbVaXB-1" vertex="1">
          <mxGeometry x="470" y="1027.5" width="200" height="70" as="geometry" />
        </mxCell>
        <mxCell id="xaHEJ4oOJj-pfTSbVaXB-13" value="" style="endArrow=classic;html=1;rounded=0;exitX=0.5;exitY=1;exitDx=0;exitDy=0;entryX=0.5;entryY=0;entryDx=0;entryDy=0;entryPerimeter=0;" parent="xaHEJ4oOJj-pfTSbVaXB-1" source="xaHEJ4oOJj-pfTSbVaXB-9" target="xaHEJ4oOJj-pfTSbVaXB-11" edge="1">
          <mxGeometry width="50" height="50" relative="1" as="geometry">
            <mxPoint x="350" y="940" as="sourcePoint" />
            <mxPoint x="420" y="907.5" as="targetPoint" />
          </mxGeometry>
        </mxCell>
        <mxCell id="xaHEJ4oOJj-pfTSbVaXB-14" value="" style="endArrow=classic;html=1;rounded=0;entryX=0.5;entryY=0;entryDx=0;entryDy=0;entryPerimeter=0;" parent="xaHEJ4oOJj-pfTSbVaXB-1" target="xaHEJ4oOJj-pfTSbVaXB-10" edge="1">
          <mxGeometry width="50" height="50" relative="1" as="geometry">
            <mxPoint x="350" y="967.5" as="sourcePoint" />
            <mxPoint x="420" y="907.5" as="targetPoint" />
            <Array as="points">
              <mxPoint x="135" y="967.5" />
            </Array>
          </mxGeometry>
        </mxCell>
        <mxCell id="xaHEJ4oOJj-pfTSbVaXB-15" value="" style="endArrow=classic;html=1;rounded=0;entryX=0.5;entryY=0;entryDx=0;entryDy=0;entryPerimeter=0;" parent="xaHEJ4oOJj-pfTSbVaXB-1" target="xaHEJ4oOJj-pfTSbVaXB-12" edge="1">
          <mxGeometry width="50" height="50" relative="1" as="geometry">
            <mxPoint x="350" y="967.5" as="sourcePoint" />
            <mxPoint x="420" y="907.5" as="targetPoint" />
            <Array as="points">
              <mxPoint x="570" y="967.5" />
            </Array>
          </mxGeometry>
        </mxCell>
        <mxCell id="xaHEJ4oOJj-pfTSbVaXB-16" value="" style="swimlane;startSize=0;fillColor=#008a00;fontColor=#ffffff;strokeColor=#005700;" parent="xaHEJ4oOJj-pfTSbVaXB-1" vertex="1">
          <mxGeometry x="25" y="987.5" width="650" height="130" as="geometry" />
        </mxCell>
        <mxCell id="xaHEJ4oOJj-pfTSbVaXB-17" value="" style="endArrow=classic;html=1;rounded=0;exitX=0.5;exitY=1;exitDx=0;exitDy=0;fillColor=#60a917;strokeColor=#2D7600;entryX=0.5;entryY=0;entryDx=0;entryDy=0;" parent="xaHEJ4oOJj-pfTSbVaXB-1" target="xaHEJ4oOJj-pfTSbVaXB-18" edge="1">
          <mxGeometry width="50" height="50" relative="1" as="geometry">
            <mxPoint x="355" y="1117.5" as="sourcePoint" />
            <mxPoint x="355" y="1157.5" as="targetPoint" />
          </mxGeometry>
        </mxCell>
        <mxCell id="xaHEJ4oOJj-pfTSbVaXB-18" value="End" style="ellipse;whiteSpace=wrap;html=1;fontSize=14;" parent="xaHEJ4oOJj-pfTSbVaXB-1" vertex="1">
          <mxGeometry x="295" y="1157.5" width="120" height="50" as="geometry" />
        </mxCell>
        <mxCell id="xaHEJ4oOJj-pfTSbVaXB-19" style="edgeStyle=orthogonalEdgeStyle;rounded=0;orthogonalLoop=1;jettySize=auto;html=1;entryX=0.5;entryY=0;entryDx=0;entryDy=0;entryPerimeter=0;" parent="xaHEJ4oOJj-pfTSbVaXB-1" source="xaHEJ4oOJj-pfTSbVaXB-5" target="xaHEJ4oOJj-pfTSbVaXB-6" edge="1">
          <mxGeometry relative="1" as="geometry" />
        </mxCell>
        <mxCell id="xaHEJ4oOJj-pfTSbVaXB-20" style="edgeStyle=orthogonalEdgeStyle;rounded=0;orthogonalLoop=1;jettySize=auto;html=1;entryX=0.5;entryY=0;entryDx=0;entryDy=0;entryPerimeter=0;" parent="xaHEJ4oOJj-pfTSbVaXB-1" source="xaHEJ4oOJj-pfTSbVaXB-4" target="xaHEJ4oOJj-pfTSbVaXB-5" edge="1">
          <mxGeometry relative="1" as="geometry" />
        </mxCell>
        <mxCell id="xaHEJ4oOJj-pfTSbVaXB-21" value="" style="endArrow=classic;html=1;rounded=0;exitX=0.5;exitY=1;exitDx=0;exitDy=0;entryX=0.5;entryY=0;entryDx=0;entryDy=0;" parent="xaHEJ4oOJj-pfTSbVaXB-1" source="xaHEJ4oOJj-pfTSbVaXB-3" target="xaHEJ4oOJj-pfTSbVaXB-2" edge="1">
          <mxGeometry width="50" height="50" relative="1" as="geometry">
            <mxPoint x="495" y="165" as="sourcePoint" />
            <mxPoint x="545" y="115" as="targetPoint" />
          </mxGeometry>
        </mxCell>
        <mxCell id="xaHEJ4oOJj-pfTSbVaXB-22" style="edgeStyle=orthogonalEdgeStyle;rounded=0;orthogonalLoop=1;jettySize=auto;html=1;entryX=0.5;entryY=0;entryDx=0;entryDy=0;entryPerimeter=0;" parent="xaHEJ4oOJj-pfTSbVaXB-1" source="xaHEJ4oOJj-pfTSbVaXB-2" target="xaHEJ4oOJj-pfTSbVaXB-4" edge="1">
          <mxGeometry relative="1" as="geometry" />
        </mxCell>
        <mxCell id="xaHEJ4oOJj-pfTSbVaXB-23" value="Revurse Page Registry.Clear()" style="shape=cylinder3;whiteSpace=wrap;html=1;boundedLbl=1;backgroundOutline=1;size=15;fontSize=14;" parent="xaHEJ4oOJj-pfTSbVaXB-1" vertex="1">
          <mxGeometry x="240" y="620" width="220" height="70" as="geometry" />
        </mxCell>
        <mxCell id="xaHEJ4oOJj-pfTSbVaXB-24" style="edgeStyle=orthogonalEdgeStyle;rounded=0;orthogonalLoop=1;jettySize=auto;html=1;entryX=0.5;entryY=0;entryDx=0;entryDy=0;entryPerimeter=0;" parent="xaHEJ4oOJj-pfTSbVaXB-1" source="xaHEJ4oOJj-pfTSbVaXB-23" target="xaHEJ4oOJj-pfTSbVaXB-8" edge="1">
          <mxGeometry relative="1" as="geometry" />
        </mxCell>
        <mxCell id="xaHEJ4oOJj-pfTSbVaXB-25" style="edgeStyle=orthogonalEdgeStyle;rounded=0;orthogonalLoop=1;jettySize=auto;html=1;entryX=0.5;entryY=0;entryDx=0;entryDy=0;entryPerimeter=0;" parent="xaHEJ4oOJj-pfTSbVaXB-1" source="xaHEJ4oOJj-pfTSbVaXB-6" target="xaHEJ4oOJj-pfTSbVaXB-23" edge="1">
          <mxGeometry relative="1" as="geometry" />
        </mxCell>
        <mxCell id="xaHEJ4oOJj-pfTSbVaXB-27" value="" style="swimlane;startSize=0;" parent="1" vertex="1">
          <mxGeometry x="1360" y="-30" width="440" height="1050" as="geometry" />
        </mxCell>
        <mxCell id="oS7MzfRwADnnLeCyvdUV-1" value="&lt;font style=&quot;font-size: 24px;&quot;&gt;LinkLynx&lt;/font&gt;" style="ellipse;whiteSpace=wrap;html=1;fontSize=24;" parent="xaHEJ4oOJj-pfTSbVaXB-27" vertex="1">
          <mxGeometry x="80" y="30" width="280" height="80" as="geometry" />
        </mxCell>
        <mxCell id="xaHEJ4oOJj-pfTSbVaXB-51" style="edgeStyle=orthogonalEdgeStyle;rounded=0;orthogonalLoop=1;jettySize=auto;html=1;entryX=0.5;entryY=0;entryDx=0;entryDy=0;" parent="xaHEJ4oOJj-pfTSbVaXB-27" source="xaHEJ4oOJj-pfTSbVaXB-47" target="xaHEJ4oOJj-pfTSbVaXB-49" edge="1">
          <mxGeometry relative="1" as="geometry" />
        </mxCell>
        <mxCell id="xaHEJ4oOJj-pfTSbVaXB-47" value="Foreach Page Logic In The Panel Logic Group Instance" style="rounded=0;whiteSpace=wrap;html=1;fontSize=14;" parent="xaHEJ4oOJj-pfTSbVaXB-27" vertex="1">
          <mxGeometry x="31.25" y="690" width="377.5" height="60" as="geometry" />
        </mxCell>
        <mxCell id="xaHEJ4oOJj-pfTSbVaXB-49" value="Panel Logic Group.SetPageDefaults" style="rounded=1;whiteSpace=wrap;html=1;fontSize=14;" parent="xaHEJ4oOJj-pfTSbVaXB-27" vertex="1">
          <mxGeometry x="95" y="815.5" width="250" height="60" as="geometry" />
        </mxCell>
        <mxCell id="xaHEJ4oOJj-pfTSbVaXB-55" style="edgeStyle=orthogonalEdgeStyle;rounded=0;orthogonalLoop=1;jettySize=auto;html=1;entryX=0.5;entryY=0;entryDx=0;entryDy=0;fillColor=#008a00;strokeColor=#005700;" parent="xaHEJ4oOJj-pfTSbVaXB-27" source="xaHEJ4oOJj-pfTSbVaXB-50" target="xaHEJ4oOJj-pfTSbVaXB-52" edge="1">
          <mxGeometry relative="1" as="geometry" />
        </mxCell>
        <mxCell id="xaHEJ4oOJj-pfTSbVaXB-50" value="" style="swimlane;startSize=0;fillColor=#008a00;fontColor=#ffffff;strokeColor=#005700;" parent="xaHEJ4oOJj-pfTSbVaXB-27" vertex="1">
          <mxGeometry x="35" y="780" width="370" height="128" as="geometry" />
        </mxCell>
        <mxCell id="xaHEJ4oOJj-pfTSbVaXB-52" value="End" style="ellipse;whiteSpace=wrap;html=1;fontSize=14;" parent="xaHEJ4oOJj-pfTSbVaXB-27" vertex="1">
          <mxGeometry x="160" y="970" width="120" height="50" as="geometry" />
        </mxCell>
        <mxCell id="xaHEJ4oOJj-pfTSbVaXB-29" value="Panel Registration" style="text;strokeColor=none;fillColor=none;align=left;verticalAlign=middle;spacingLeft=4;spacingRight=4;overflow=hidden;points=[[0,0.5],[1,0.5]];portConstraint=eastwest;rotatable=0;whiteSpace=wrap;html=1;fontSize=30;" parent="1" vertex="1">
          <mxGeometry x="1360" y="-120" width="270" height="80" as="geometry" />
        </mxCell>
        <mxCell id="xaHEJ4oOJj-pfTSbVaXB-57" style="edgeStyle=orthogonalEdgeStyle;rounded=0;orthogonalLoop=1;jettySize=auto;html=1;entryX=0.5;entryY=0;entryDx=0;entryDy=0;" parent="1" source="xaHEJ4oOJj-pfTSbVaXB-32" target="GIbPInfblWVgtL2tOyPH-106" edge="1">
          <mxGeometry relative="1" as="geometry" />
        </mxCell>
        <mxCell id="xaHEJ4oOJj-pfTSbVaXB-32" value="&lt;font style=&quot;font-size: 24px;&quot;&gt;LinkLynx&lt;/font&gt;" style="ellipse;whiteSpace=wrap;html=1;fontSize=24;" parent="1" vertex="1">
          <mxGeometry x="2710" y="1" width="280" height="80" as="geometry" />
        </mxCell>
        <mxCell id="xaHEJ4oOJj-pfTSbVaXB-34" style="edgeStyle=orthogonalEdgeStyle;rounded=0;orthogonalLoop=1;jettySize=auto;html=1;entryX=0.5;entryY=0;entryDx=0;entryDy=0;" parent="1" source="xaHEJ4oOJj-pfTSbVaXB-33" target="GIbPInfblWVgtL2tOyPH-104" edge="1">
          <mxGeometry relative="1" as="geometry" />
        </mxCell>
        <mxCell id="xaHEJ4oOJj-pfTSbVaXB-33" value="&lt;font style=&quot;font-size: 24px;&quot;&gt;LinkLynx&lt;/font&gt;" style="ellipse;whiteSpace=wrap;html=1;fontSize=24;" parent="1" vertex="1">
          <mxGeometry x="1965" width="280" height="80" as="geometry" />
        </mxCell>
        <mxCell id="xaHEJ4oOJj-pfTSbVaXB-62" style="edgeStyle=orthogonalEdgeStyle;rounded=0;orthogonalLoop=1;jettySize=auto;html=1;entryX=0.5;entryY=0;entryDx=0;entryDy=0;" parent="1" source="xaHEJ4oOJj-pfTSbVaXB-37" target="xaHEJ4oOJj-pfTSbVaXB-40" edge="1">
          <mxGeometry relative="1" as="geometry" />
        </mxCell>
        <mxCell id="xaHEJ4oOJj-pfTSbVaXB-37" value="&lt;span style=&quot;font-size: 14px;&quot;&gt;Panel Logic Group Pool.Set Panel Defaults(BasicTriList device)&lt;/span&gt;" style="shape=cylinder3;whiteSpace=wrap;html=1;boundedLbl=1;backgroundOutline=1;size=15;" parent="1" vertex="1">
          <mxGeometry x="1890" y="240" width="430" height="100" as="geometry" />
        </mxCell>
        <mxCell id="xaHEJ4oOJj-pfTSbVaXB-39" value="Panel Logic Group.SetPageDefaults" style="rounded=1;whiteSpace=wrap;html=1;fontSize=14;" parent="1" vertex="1">
          <mxGeometry x="1980" y="530" width="250" height="60" as="geometry" />
        </mxCell>
        <mxCell id="xaHEJ4oOJj-pfTSbVaXB-42" style="edgeStyle=orthogonalEdgeStyle;rounded=0;orthogonalLoop=1;jettySize=auto;html=1;entryX=0.5;entryY=0;entryDx=0;entryDy=0;" parent="1" source="xaHEJ4oOJj-pfTSbVaXB-40" target="xaHEJ4oOJj-pfTSbVaXB-39" edge="1">
          <mxGeometry relative="1" as="geometry" />
        </mxCell>
        <mxCell id="xaHEJ4oOJj-pfTSbVaXB-40" value="Foreach Page Logic In The Panel Logic Group Instance" style="rounded=0;whiteSpace=wrap;html=1;fontSize=14;" parent="1" vertex="1">
          <mxGeometry x="1916.25" y="400" width="377.5" height="60" as="geometry" />
        </mxCell>
        <mxCell id="xaHEJ4oOJj-pfTSbVaXB-45" style="edgeStyle=orthogonalEdgeStyle;rounded=0;orthogonalLoop=1;jettySize=auto;html=1;entryX=0.5;entryY=0;entryDx=0;entryDy=0;fillColor=#008a00;strokeColor=#005700;" parent="1" source="xaHEJ4oOJj-pfTSbVaXB-41" target="xaHEJ4oOJj-pfTSbVaXB-44" edge="1">
          <mxGeometry relative="1" as="geometry" />
        </mxCell>
        <mxCell id="xaHEJ4oOJj-pfTSbVaXB-41" value="" style="swimlane;startSize=0;fillColor=#008a00;fontColor=#ffffff;strokeColor=#005700;" parent="1" vertex="1">
          <mxGeometry x="1920" y="494.5" width="370" height="128" as="geometry" />
        </mxCell>
        <mxCell id="xaHEJ4oOJj-pfTSbVaXB-44" value="End" style="ellipse;whiteSpace=wrap;html=1;fontSize=14;" parent="1" vertex="1">
          <mxGeometry x="2045" y="670" width="120" height="50" as="geometry" />
        </mxCell>
        <mxCell id="xaHEJ4oOJj-pfTSbVaXB-56" value="" style="swimlane;startSize=0;" parent="1" vertex="1">
          <mxGeometry x="1870" y="-30" width="490" height="790" as="geometry" />
        </mxCell>
        <mxCell id="xaHEJ4oOJj-pfTSbVaXB-66" style="edgeStyle=orthogonalEdgeStyle;rounded=0;orthogonalLoop=1;jettySize=auto;html=1;entryX=0.5;entryY=0;entryDx=0;entryDy=0;fontSize=14;" parent="1" source="xaHEJ4oOJj-pfTSbVaXB-58" target="xaHEJ4oOJj-pfTSbVaXB-63" edge="1">
          <mxGeometry relative="1" as="geometry" />
        </mxCell>
        <mxCell id="xaHEJ4oOJj-pfTSbVaXB-67" style="edgeStyle=orthogonalEdgeStyle;rounded=0;orthogonalLoop=1;jettySize=auto;html=1;entryX=0.5;entryY=0;entryDx=0;entryDy=0;fontSize=14;" parent="1" source="xaHEJ4oOJj-pfTSbVaXB-58" target="xaHEJ4oOJj-pfTSbVaXB-64" edge="1">
          <mxGeometry relative="1" as="geometry" />
        </mxCell>
        <mxCell id="xaHEJ4oOJj-pfTSbVaXB-71" style="edgeStyle=orthogonalEdgeStyle;rounded=0;orthogonalLoop=1;jettySize=auto;html=1;entryX=0.5;entryY=0;entryDx=0;entryDy=0;" parent="1" source="xaHEJ4oOJj-pfTSbVaXB-58" target="xaHEJ4oOJj-pfTSbVaXB-70" edge="1">
          <mxGeometry relative="1" as="geometry" />
        </mxCell>
        <mxCell id="xaHEJ4oOJj-pfTSbVaXB-58" value="Signal Processor.ProcessSignalChange()&lt;br style=&quot;font-size: 14px;&quot;&gt;&lt;br style=&quot;font-size: 14px;&quot;&gt;Error checking is done on the singal and source panel" style="rounded=0;whiteSpace=wrap;html=1;fontSize=14;" parent="1" vertex="1">
          <mxGeometry x="2715" y="281" width="270" height="100" as="geometry" />
        </mxCell>
        <mxCell id="xaHEJ4oOJj-pfTSbVaXB-68" style="edgeStyle=orthogonalEdgeStyle;rounded=0;orthogonalLoop=1;jettySize=auto;html=1;entryX=0.5;entryY=0;entryDx=0;entryDy=0;fontSize=14;" parent="1" source="xaHEJ4oOJj-pfTSbVaXB-63" target="xaHEJ4oOJj-pfTSbVaXB-65" edge="1">
          <mxGeometry relative="1" as="geometry" />
        </mxCell>
        <mxCell id="xaHEJ4oOJj-pfTSbVaXB-63" value="Get The Correct Logic Group Instance From The Logic Group Pool" style="rounded=0;whiteSpace=wrap;html=1;fontSize=14;" parent="1" vertex="1">
          <mxGeometry x="2480" y="471" width="340" height="60" as="geometry" />
        </mxCell>
        <mxCell id="xaHEJ4oOJj-pfTSbVaXB-69" style="edgeStyle=orthogonalEdgeStyle;rounded=0;orthogonalLoop=1;jettySize=auto;html=1;entryX=0.5;entryY=0;entryDx=0;entryDy=0;fontSize=14;" parent="1" source="xaHEJ4oOJj-pfTSbVaXB-64" target="xaHEJ4oOJj-pfTSbVaXB-65" edge="1">
          <mxGeometry relative="1" as="geometry" />
        </mxCell>
        <mxCell id="xaHEJ4oOJj-pfTSbVaXB-64" value="Get The Page ID From The Reverse Page Registry Given The Simple Signal Type and Number" style="rounded=0;whiteSpace=wrap;html=1;fontSize=14;" parent="1" vertex="1">
          <mxGeometry x="2860" y="471" width="380" height="60" as="geometry" />
        </mxCell>
        <mxCell id="xaHEJ4oOJj-pfTSbVaXB-73" style="edgeStyle=orthogonalEdgeStyle;rounded=0;orthogonalLoop=1;jettySize=auto;html=1;entryX=0.5;entryY=0;entryDx=0;entryDy=0;" parent="1" source="xaHEJ4oOJj-pfTSbVaXB-65" target="xaHEJ4oOJj-pfTSbVaXB-72" edge="1">
          <mxGeometry relative="1" as="geometry" />
        </mxCell>
        <mxCell id="xaHEJ4oOJj-pfTSbVaXB-65" value="Get the correct Page Logic Base Instance From the Logic Group Pool Using the Page Logic ID&amp;nbsp;" style="rounded=0;whiteSpace=wrap;html=1;fontSize=14;" parent="1" vertex="1">
          <mxGeometry x="2655" y="623.5" width="390" height="60" as="geometry" />
        </mxCell>
        <mxCell id="xaHEJ4oOJj-pfTSbVaXB-74" style="edgeStyle=orthogonalEdgeStyle;rounded=0;orthogonalLoop=1;jettySize=auto;html=1;entryX=0.5;entryY=0;entryDx=0;entryDy=0;" parent="1" source="xaHEJ4oOJj-pfTSbVaXB-70" target="xaHEJ4oOJj-pfTSbVaXB-72" edge="1">
          <mxGeometry relative="1" as="geometry">
            <Array as="points">
              <mxPoint x="3390" y="751" />
              <mxPoint x="2850" y="751" />
            </Array>
          </mxGeometry>
        </mxCell>
        <mxCell id="xaHEJ4oOJj-pfTSbVaXB-70" value="Get The Action Constructor From The Dispatcher Helper From the Signal Join Number and Sign&lt;span style=&quot;background-color: initial;&quot;&gt;al Type&lt;/span&gt;" style="rounded=0;whiteSpace=wrap;html=1;fontSize=14;" parent="1" vertex="1">
          <mxGeometry x="3120" y="623.5" width="540" height="60" as="geometry" />
        </mxCell>
        <mxCell id="xaHEJ4oOJj-pfTSbVaXB-80" style="edgeStyle=orthogonalEdgeStyle;rounded=0;orthogonalLoop=1;jettySize=auto;html=1;entryX=0.5;entryY=0;entryDx=0;entryDy=0;" parent="1" source="xaHEJ4oOJj-pfTSbVaXB-72" target="xaHEJ4oOJj-pfTSbVaXB-78" edge="1">
          <mxGeometry relative="1" as="geometry" />
        </mxCell>
        <mxCell id="xaHEJ4oOJj-pfTSbVaXB-72" value="Invoke The Correct Method on The Correct Page Logic Instance&amp;nbsp;" style="rounded=0;whiteSpace=wrap;html=1;fontSize=14;" parent="1" vertex="1">
          <mxGeometry x="2660" y="831" width="380" height="60" as="geometry" />
        </mxCell>
        <mxCell id="xaHEJ4oOJj-pfTSbVaXB-75" value="" style="swimlane;startSize=0;" parent="1" vertex="1">
          <mxGeometry x="2430" y="-30" width="1270" height="1070" as="geometry" />
        </mxCell>
        <mxCell id="xaHEJ4oOJj-pfTSbVaXB-78" value="End" style="ellipse;whiteSpace=wrap;html=1;fontSize=14;" parent="xaHEJ4oOJj-pfTSbVaXB-75" vertex="1">
          <mxGeometry x="360" y="977.5" width="120" height="50" as="geometry" />
        </mxCell>
        <mxCell id="xaHEJ4oOJj-pfTSbVaXB-76" value="Panel Defaulting" style="text;strokeColor=none;fillColor=none;align=left;verticalAlign=middle;spacingLeft=4;spacingRight=4;overflow=hidden;points=[[0,0.5],[1,0.5]];portConstraint=eastwest;rotatable=0;whiteSpace=wrap;html=1;fontSize=30;" parent="1" vertex="1">
          <mxGeometry x="1870" y="-110" width="270" height="80" as="geometry" />
        </mxCell>
        <mxCell id="xaHEJ4oOJj-pfTSbVaXB-77" value="Incoming Singal Handling" style="text;strokeColor=none;fillColor=none;align=left;verticalAlign=middle;spacingLeft=4;spacingRight=4;overflow=hidden;points=[[0,0.5],[1,0.5]];portConstraint=eastwest;rotatable=0;whiteSpace=wrap;html=1;fontSize=30;" parent="1" vertex="1">
          <mxGeometry x="2430" y="-110" width="390" height="80" as="geometry" />
        </mxCell>
      </root>
    </mxGraphModel>
  </diagram>
</mxfile>
